{"asset":{"version":"2.0","generator":"gltfpack 0.24"},"extensionsUsed":["KHR_mesh_quantization","EXT_meshopt_compression"],"extensionsRequired":["KHR_mesh_quantization","EXT_meshopt_compression"],"buffers":[{"uri":"model.bin","byteLength":1423564},{"byteLength":8001200,"extensions":{"EXT_meshopt_compression":{"fallback":true}}}],"bufferViews":[{"buffer":1,"byteOffset":0,"byteLength":2647760,"byteStride":8,"target":34962,"extensions":{"EXT_meshopt_compression":{"buffer":0,"byteOffset":0,"byteLength":862589,"byteStride":8,"mode":"ATTRIBUTES","count":330970}}},{"buffer":1,"byteOffset":2647760,"byteLength":1323880,"byteStride":4,"target":34962,"extensions":{"EXT_meshopt_compression":{"buffer":0,"byteOffset":862592,"byteLength":196744,"byteStride":4,"mode":"ATTRIBUTES","filter":"OCTAHEDRAL","count":330970}}},{"buffer":1,"byteOffset":3971640,"byteLength":114942,"target":34963,"extensions":{"EXT_meshopt_compression":{"buffer":0,"byteOffset":1059336,"byteLength":20330,"byteStride":2,"mode":"TRIANGLES","count":57471}}},{"buffer":1,"byteOffset":4086584,"byteLength":3914616,"target":34963,"extensions":{"EXT_meshopt_compression":{"buffer":0,"byteOffset":1079668,"byteLength":343893,"byteStride":4,"mode":"TRIANGLES","count":978654}}}],"accessors":[{"bufferView":0,"byteOffset":0,"componentType":5123,"count":1434,"type":"VEC3","min":[976,109,12223],"max":[5291,451,15475]},{"bufferView":1,"byteOffset":0,"componentType":5120,"count":1434,"type":"VEC3","normalized":true},{"bufferView":2,"byteOffset":0,"componentType":5123,"count":2736,"type":"SCALAR"},{"bufferView":0,"byteOffset":11472,"componentType":5123,"count":1546,"type":"VEC3","min":[7145,390,96],"max":[8982,861,4971]},{"bufferView":1,"byteOffset":5736,"componentType":5120,"count":1546,"type":"VEC3","normalized":true},{"bufferView":2,"byteOffset":5472,"componentType":5123,"count":2868,"type":"SCALAR"},{"bufferView":0,"byteOffset":23840,"componentType":5123,"count":1360,"type":"VEC3","min":[9343,271,8237],"max":[12942,635,11232]},{"bufferView":1,"byteOffset":11920,"componentType":5120,"count":1360,"type":"VEC3","normalized":true},{"bufferView":2,"byteOffset":11208,"componentType":5123,"count":2580,"type":"SCALAR"},{"bufferView":0,"byteOffset":34720,"componentType":5123,"count":1500,"type":"VEC3","min":[5095,254,6961],"max":[8030,661,10395]},{"bufferView":1,"byteOffset":17360,"componentType":5120,"count":1500,"type":"VEC3","normalized":true},{"bufferView":2,"byteOffset":16368,"componentType":5123,"count":2796,"type":"SCALAR"},{"bufferView":0,"byteOffset":46720,"componentType":5123,"count":1404,"type":"VEC3","min":[7576,346,9270],"max":[10397,651,11570]},{"bufferView":1,"byteOffset":23360,"componentType":5120,"count":1404,"type":"VEC3","normalized":true},{"bufferView":2,"byteOffset":21960,"componentType":5123,"count":2676,"type":"SCALAR"},{"bufferView":0,"byteOffset":57952,"componentType":5123,"count":1226,"type":"VEC3","min":[3047,161,9526],"max":[6283,594,13176]},{"bufferView":1,"byteOffset":28976,"componentType":5120,"count":1226,"type":"VEC3","normalized":true},{"bufferView":2,"byteOffset":27312,"componentType":5123,"count":2292,"type":"SCALAR"},{"bufferView":0,"byteOffset":67760,"componentType":5123,"count":1172,"type":"VEC3","min":[6028,120,10287],"max":[8907,531,14262]},{"bufferView":1,"byteOffset":33880,"componentType":5120,"count":1172,"type":"VEC3","normalized":true},{"bufferView":2,"byteOffset":31896,"componentType":5123,"count":2208,"type":"SCALAR"},{"bufferView":0,"byteOffset":77136,"componentType":5123,"count":2360,"type":"VEC3","min":[6259,118,11583],"max":[10375,841,15667]},{"bufferView":1,"byteOffset":38568,"componentType":5120,"count":2360,"type":"VEC3","normalized":true},{"bufferView":2,"byteOffset":36312,"componentType":5123,"count":4428,"type":"SCALAR"},{"bufferView":0,"byteOffset":96016,"componentType":5123,"count":307594,"type":"VEC3","min":[0,0,0],"max":[14261,1974,16383]},{"bufferView":1,"byteOffset":48008,"componentType":5120,"count":307594,"type":"VEC3","normalized":true},{"bufferView":3,"byteOffset":0,"componentType":5125,"count":978654,"type":"SCALAR"},{"bufferView":0,"byteOffset":2556768,"componentType":5123,"count":11374,"type":"VEC3","min":[0,0,0],"max":[14258,1840,16383]},{"bufferView":1,"byteOffset":1278384,"componentType":5120,"count":11374,"type":"VEC3","normalized":true},{"bufferView":2,"byteOffset":45168,"componentType":5123,"count":34887,"type":"SCALAR"}],"materials":[{"pbrMetallicRoughness":{"baseColorFactor":[0.749019623,0.247058824,1,1]}},{"pbrMetallicRoughness":{"baseColorFactor":[0.247058824,0.749019623,0.749019623,1]}},{"pbrMetallicRoughness":{"baseColorFactor":[0.545098066,0.270588249,0.0745098069,1]}},{"pbrMetallicRoughness":{"baseColorFactor":[0,0,1,1]}},{"pbrMetallicRoughness":{"baseColorFactor":[1,0.498039216,0,1]}},{"pbrMetallicRoughness":{"baseColorFactor":[0,1,1,1]}},{"pbrMetallicRoughness":{"baseColorFactor":[1,0.749019623,0,1]}},{"pbrMetallicRoughness":{"baseColorFactor":[0,1,0,1]}},{"pbrMetallicRoughness":{"baseColorFactor":[0,0,0,1]}},{"pbrMetallicRoughness":{"baseColorFactor":[0.745098054,0.745098054,0.745098054,1]}}],"meshes":[{"primitives":[{"attributes":{"POSITION":0,"NORMAL":1},"indices":2,"material":0},{"attributes":{"POSITION":3,"NORMAL":4},"indices":5,"material":1},{"attributes":{"POSITION":6,"NORMAL":7},"indices":8,"material":2},{"attributes":{"POSITION":9,"NORMAL":10},"indices":11,"material":3},{"attributes":{"POSITION":12,"NORMAL":13},"indices":14,"material":4},{"attributes":{"POSITION":15,"NORMAL":16},"indices":17,"material":5},{"attributes":{"POSITION":18,"NORMAL":19},"indices":20,"material":6},{"attributes":{"POSITION":21,"NORMAL":22},"indices":23,"material":7},{"attributes":{"POSITION":24,"NORMAL":25},"indices":26,"material":8},{"attributes":{"POSITION":27,"NORMAL":28},"indices":29,"material":9}]}],"nodes":[{"mesh":0,"translation":[-783.963074,-117.604103,-1006.99231],"scale":[0.105036035,0.105036035,0.105036035]}],"scenes":[{"nodes":[0]}],"scene":0}