{"asset":{"version":"2.0","generator":"gltfpack 0.24"},"extensionsUsed":["KHR_mesh_quantization","EXT_meshopt_compression"],"extensionsRequired":["KHR_mesh_quantization","EXT_meshopt_compression"],"buffers":[{"uri":"songdo.bin","byteLength":211668},{"byteLength":824696,"extensions":{"EXT_meshopt_compression":{"fallback":true}}}],"bufferViews":[{"buffer":1,"byteOffset":0,"byteLength":381160,"byteStride":8,"target":34962,"extensions":{"EXT_meshopt_compression":{"buffer":0,"byteOffset":0,"byteLength":140656,"byteStride":8,"mode":"ATTRIBUTES","count":47645}}},{"buffer":1,"byteOffset":381160,"byteLength":190580,"byteStride":4,"target":34962,"extensions":{"EXT_meshopt_compression":{"buffer":0,"byteOffset":140656,"byteLength":25451,"byteStride":4,"mode":"ATTRIBUTES","filter":"OCTAHEDRAL","count":47645}}},{"buffer":1,"byteOffset":571740,"byteLength":252954,"target":34963,"extensions":{"EXT_meshopt_compression":{"buffer":0,"byteOffset":166108,"byteLength":45558,"byteStride":2,"mode":"TRIANGLES","count":126477}}}],"accessors":[{"bufferView":0,"byteOffset":0,"componentType":5123,"count":21616,"type":"VEC3","min":[22,28,107],"max":[12957,1155,10532]},{"bufferView":1,"byteOffset":0,"componentType":5120,"count":21616,"type":"VEC3","normalized":true},{"bufferView":2,"byteOffset":0,"componentType":5123,"count":40968,"type":"SCALAR"},{"bufferView":0,"byteOffset":172928,"componentType":5123,"count":312,"type":"VEC3","min":[8418,55,3650],"max":[10419,177,5203]},{"bufferView":1,"byteOffset":86464,"componentType":5120,"count":312,"type":"VEC3","normalized":true},{"bufferView":2,"byteOffset":81936,"componentType":5123,"count":576,"type":"SCALAR"},{"bufferView":0,"byteOffset":175424,"componentType":5123,"count":486,"type":"VEC3","min":[7241,50,4797],"max":[9318,154,7338]},{"bufferView":1,"byteOffset":87712,"componentType":5120,"count":486,"type":"VEC3","normalized":true},{"bufferView":2,"byteOffset":83088,"componentType":5123,"count":864,"type":"SCALAR"},{"bufferView":0,"byteOffset":179312,"componentType":5123,"count":524,"type":"VEC3","min":[6107,52,4052],"max":[7997,258,5972]},{"bufferView":1,"byteOffset":89656,"componentType":5120,"count":524,"type":"VEC3","normalized":true},{"bufferView":2,"byteOffset":84816,"componentType":5123,"count":924,"type":"SCALAR"},{"bufferView":0,"byteOffset":183504,"componentType":5123,"count":24,"type":"VEC3","min":[8654,64,4889],"max":[9036,223,5271]},{"bufferView":1,"byteOffset":91752,"componentType":5120,"count":24,"type":"VEC3","normalized":true},{"bufferView":2,"byteOffset":86664,"componentType":5123,"count":36,"type":"SCALAR"},{"bufferView":0,"byteOffset":183696,"componentType":5123,"count":15395,"type":"VEC3","min":[0,0,0],"max":[16383,65,10682]},{"bufferView":1,"byteOffset":91848,"componentType":5120,"count":15395,"type":"VEC3","normalized":true},{"bufferView":2,"byteOffset":86736,"componentType":5123,"count":54129,"type":"SCALAR"},{"bufferView":0,"byteOffset":306856,"componentType":5123,"count":9288,"type":"VEC3","min":[0,14,0],"max":[16383,65,10682]},{"bufferView":1,"byteOffset":153428,"componentType":5120,"count":9288,"type":"VEC3","normalized":true},{"bufferView":2,"byteOffset":194994,"componentType":5123,"count":28980,"type":"SCALAR"}],"samplers":[{"magFilter":9729,"minFilter":9729}],"materials":[{"pbrMetallicRoughness":{"baseColorFactor":[0.745098054,0.745098054,0.745098054,1]}},{"pbrMetallicRoughness":{"baseColorFactor":[0.333333343,0.101960786,0.545098066,1]}},{"pbrMetallicRoughness":{"baseColorFactor":[0,0,1,1]}},{"pbrMetallicRoughness":{"baseColorFactor":[0.749019623,0.247058824,0.247058824,1]}},{"pbrMetallicRoughness":{"baseColorFactor":[0.80392158,0.521568656,0,1]}},{"pbrMetallicRoughness":{"baseColorFactor":[0.90196079,0.90196079,0.90196079,0.490196079]}},{"pbrMetallicRoughness":{}}],"meshes":[{"primitives":[{"attributes":{"POSITION":0,"NORMAL":1},"indices":2,"material":0},{"attributes":{"POSITION":3,"NORMAL":4},"indices":5,"material":1},{"attributes":{"POSITION":6,"NORMAL":7},"indices":8,"material":2},{"attributes":{"POSITION":9,"NORMAL":10},"indices":11,"material":3},{"attributes":{"POSITION":12,"NORMAL":13},"indices":14,"material":4},{"attributes":{"POSITION":15,"NORMAL":16},"indices":17,"material":5},{"attributes":{"POSITION":18,"NORMAL":19},"indices":20,"material":6}]}],"nodes":[{"mesh":0,"translation":[-1.26450002,-0.089109078,-0.824500024],"scale":[0.000154367328,0.000154367328,0.000154367328]}],"scenes":[{"nodes":[0]}],"scene":0}