{"asset":{"version":"2.0","generator":"gltfpack 0.24"},"extensionsUsed":["KHR_mesh_quantization","EXT_meshopt_compression"],"extensionsRequired":["KHR_mesh_quantization","EXT_meshopt_compression"],"buffers":[{"uri":"songdo.bin","byteLength":211556},{"byteLength":825432,"extensions":{"EXT_meshopt_compression":{"fallback":true}}}],"bufferViews":[{"buffer":1,"byteOffset":0,"byteLength":381568,"byteStride":8,"target":34962,"extensions":{"EXT_meshopt_compression":{"buffer":0,"byteOffset":0,"byteLength":140653,"byteStride":8,"mode":"ATTRIBUTES","count":47696}}},{"buffer":1,"byteOffset":381568,"byteLength":8,"target":34963,"extensions":{"EXT_meshopt_compression":{"buffer":0,"byteOffset":140656,"byteLength":9,"byteStride":2,"mode":"INDICES","count":4}}},{"buffer":1,"byteOffset":381576,"byteLength":190768,"byteStride":4,"target":34962,"extensions":{"EXT_meshopt_compression":{"buffer":0,"byteOffset":140668,"byteLength":25316,"byteStride":4,"mode":"ATTRIBUTES","filter":"OCTAHEDRAL","count":47692}}},{"buffer":1,"byteOffset":572344,"byteLength":253086,"target":34963,"extensions":{"EXT_meshopt_compression":{"buffer":0,"byteOffset":165984,"byteLength":45572,"byteStride":2,"mode":"TRIANGLES","count":126543}}}],"accessors":[{"bufferView":0,"byteOffset":0,"componentType":5123,"count":4,"type":"VEC3","min":[6505,53,5234],"max":[6593,54,5504]},{"bufferView":1,"byteOffset":0,"componentType":5123,"count":4,"type":"SCALAR"},{"bufferView":0,"byteOffset":32,"componentType":5123,"count":312,"type":"VEC3","min":[8418,55,3650],"max":[10419,191,5203]},{"bufferView":2,"byteOffset":0,"componentType":5120,"count":312,"type":"VEC3","normalized":true},{"bufferView":3,"byteOffset":0,"componentType":5123,"count":576,"type":"SCALAR"},{"bufferView":0,"byteOffset":2528,"componentType":5123,"count":572,"type":"VEC3","min":[6107,52,4052],"max":[7997,258,5972]},{"bufferView":2,"byteOffset":1248,"componentType":5120,"count":572,"type":"VEC3","normalized":true},{"bufferView":3,"byteOffset":1152,"componentType":5123,"count":996,"type":"SCALAR"},{"bufferView":0,"byteOffset":7104,"componentType":5123,"count":9287,"type":"VEC3","min":[0,14,0],"max":[16383,65,10682]},{"bufferView":2,"byteOffset":3536,"componentType":5120,"count":9287,"type":"VEC3","normalized":true},{"bufferView":3,"byteOffset":3144,"componentType":5123,"count":28974,"type":"SCALAR"},{"bufferView":0,"byteOffset":81400,"componentType":5123,"count":15395,"type":"VEC3","min":[0,0,0],"max":[16383,65,10682]},{"bufferView":2,"byteOffset":40684,"componentType":5120,"count":15395,"type":"VEC3","normalized":true},{"bufferView":3,"byteOffset":61092,"componentType":5123,"count":54129,"type":"SCALAR"},{"bufferView":0,"byteOffset":204560,"componentType":5123,"count":21616,"type":"VEC3","min":[22,28,107],"max":[12957,1155,10532]},{"bufferView":2,"byteOffset":102264,"componentType":5120,"count":21616,"type":"VEC3","normalized":true},{"bufferView":3,"byteOffset":169350,"componentType":5123,"count":40968,"type":"SCALAR"},{"bufferView":0,"byteOffset":377488,"componentType":5123,"count":486,"type":"VEC3","min":[7241,50,4797],"max":[9318,154,7338]},{"bufferView":2,"byteOffset":188728,"componentType":5120,"count":486,"type":"VEC3","normalized":true},{"bufferView":3,"byteOffset":251286,"componentType":5123,"count":864,"type":"SCALAR"},{"bufferView":0,"byteOffset":381376,"componentType":5123,"count":24,"type":"VEC3","min":[8654,64,4889],"max":[9036,223,5271]},{"bufferView":2,"byteOffset":190672,"componentType":5120,"count":24,"type":"VEC3","normalized":true},{"bufferView":3,"byteOffset":253014,"componentType":5123,"count":36,"type":"SCALAR"}],"samplers":[{"magFilter":9729,"minFilter":9729}],"materials":[{"pbrMetallicRoughness":{"baseColorFactor":[0.749019623,0.247058824,0.247058824,1]}},{"pbrMetallicRoughness":{"baseColorFactor":[0.333333343,0.101960786,0.545098066,1]}},{"pbrMetallicRoughness":{}},{"pbrMetallicRoughness":{"baseColorFactor":[0.90196079,0.90196079,0.90196079,0.490196079]}},{"pbrMetallicRoughness":{"baseColorFactor":[0.745098054,0.745098054,0.745098054,1]}},{"pbrMetallicRoughness":{"baseColorFactor":[0.239215687,0.239215687,0.545098066,1]}},{"pbrMetallicRoughness":{"baseColorFactor":[0.631372571,0.407843143,0,1]}}],"meshes":[{"primitives":[{"attributes":{"POSITION":0},"mode":1,"indices":1,"material":0},{"attributes":{"POSITION":2,"NORMAL":3},"indices":4,"material":1},{"attributes":{"POSITION":5,"NORMAL":6},"indices":7,"material":0},{"attributes":{"POSITION":8,"NORMAL":9},"indices":10,"material":2},{"attributes":{"POSITION":11,"NORMAL":12},"indices":13,"material":3},{"attributes":{"POSITION":14,"NORMAL":15},"indices":16,"material":4},{"attributes":{"POSITION":17,"NORMAL":18},"indices":19,"material":5},{"attributes":{"POSITION":20,"NORMAL":21},"indices":22,"material":6}]}],"nodes":[{"mesh":0,"translation":[-1264.5,1.19508524e-15,-824.5],"scale":[0.154367328,0.154367328,0.154367328]}],"scenes":[{"nodes":[0]}],"scene":0}